<mxfile host="Electron" agent="Mozilla/5.0 (X11; Linux x86_64) AppleWebKit/537.36 (KHTML, like Gecko) draw.io/28.1.2 Chrome/138.0.7204.243 Electron/37.4.0 Safari/537.36" version="28.1.2">
  <diagram name="Page-1" id="sc_ENZ4n4VTraK4KD7WR">
    <mxGraphModel dx="1426" dy="875" grid="1" gridSize="10" guides="1" tooltips="1" connect="1" arrows="1" fold="1" page="1" pageScale="1" pageWidth="1100" pageHeight="850" math="0" shadow="0">
      <root>
        <mxCell id="0" />
        <mxCell id="1" parent="0" />
        <mxCell id="Jy6s6oh6iLwWn9NSKypM-2" value="" style="whiteSpace=wrap;html=1;aspect=fixed;" parent="1" vertex="1">
          <mxGeometry x="390" y="150" width="410" height="410" as="geometry" />
        </mxCell>
        <mxCell id="Jy6s6oh6iLwWn9NSKypM-3" value="" style="rounded=0;whiteSpace=wrap;html=1;" parent="1" vertex="1">
          <mxGeometry x="850" y="150" width="180" height="410" as="geometry" />
        </mxCell>
        <mxCell id="Jy6s6oh6iLwWn9NSKypM-1" value="S3 STORAGE" style="image;aspect=fixed;perimeter=ellipsePerimeter;html=1;align=center;shadow=0;dashed=0;spacingTop=3;image=img/lib/active_directory/database_cube.svg;" parent="1" vertex="1">
          <mxGeometry x="920" y="290" width="42.5" height="47.22" as="geometry" />
        </mxCell>
        <mxCell id="Jy6s6oh6iLwWn9NSKypM-4" value="&lt;font style=&quot;font-size: 20px;&quot;&gt;&lt;b&gt;EXTERNAL&lt;/b&gt;&lt;/font&gt;" style="text;html=1;align=center;verticalAlign=middle;whiteSpace=wrap;rounded=0;" parent="1" vertex="1">
          <mxGeometry x="911.25" y="170" width="60" height="30" as="geometry" />
        </mxCell>
        <mxCell id="Jy6s6oh6iLwWn9NSKypM-5" value="&lt;font style=&quot;font-size: 20px;&quot;&gt;&lt;b&gt;KUBERNETES&lt;/b&gt;&lt;/font&gt;" style="text;html=1;align=center;verticalAlign=middle;whiteSpace=wrap;rounded=0;" parent="1" vertex="1">
          <mxGeometry x="472.5" y="170" width="245" height="30" as="geometry" />
        </mxCell>
        <mxCell id="Jy6s6oh6iLwWn9NSKypM-6" value="Backend" style="aspect=fixed;sketch=0;html=1;dashed=0;whitespace=wrap;verticalLabelPosition=bottom;verticalAlign=top;fillColor=#f8cecc;strokeColor=#b85450;points=[[0.005,0.63,0],[0.1,0.2,0],[0.9,0.2,0],[0.5,0,0],[0.995,0.63,0],[0.72,0.99,0],[0.5,1,0],[0.28,0.99,0]];shape=mxgraph.kubernetes.icon2;prIcon=pod" parent="1" vertex="1">
          <mxGeometry x="560" y="390" width="50" height="48" as="geometry" />
        </mxCell>
        <mxCell id="Jy6s6oh6iLwWn9NSKypM-7" value="&lt;font style=&quot;font-size: 9px;&quot;&gt;MongoDB Volume&lt;/font&gt;" style="aspect=fixed;sketch=0;html=1;dashed=0;whitespace=wrap;verticalLabelPosition=bottom;verticalAlign=top;fillColor=#e1d5e7;strokeColor=#9673a6;points=[[0.005,0.63,0],[0.1,0.2,0],[0.9,0.2,0],[0.5,0,0],[0.995,0.63,0],[0.72,0.99,0],[0.5,1,0],[0.28,0.99,0]];shape=mxgraph.kubernetes.icon2;prIcon=vol" parent="1" vertex="1">
          <mxGeometry x="747.5" y="309.22" width="29.17" height="28" as="geometry" />
        </mxCell>
        <mxCell id="Jy6s6oh6iLwWn9NSKypM-8" value="Frontend SVC" style="aspect=fixed;sketch=0;html=1;dashed=0;whitespace=wrap;verticalLabelPosition=bottom;verticalAlign=top;fillColor=#2875E2;strokeColor=#ffffff;points=[[0.005,0.63,0],[0.1,0.2,0],[0.9,0.2,0],[0.5,0,0],[0.995,0.63,0],[0.72,0.99,0],[0.5,1,0],[0.28,0.99,0]];shape=mxgraph.kubernetes.icon2;prIcon=svc" parent="1" vertex="1">
          <mxGeometry x="430" y="210" width="50" height="48" as="geometry" />
        </mxCell>
        <mxCell id="Jy6s6oh6iLwWn9NSKypM-9" value="Frontend" style="aspect=fixed;sketch=0;html=1;dashed=0;whitespace=wrap;verticalLabelPosition=bottom;verticalAlign=top;fillColor=#2875E2;strokeColor=#ffffff;points=[[0.005,0.63,0],[0.1,0.2,0],[0.9,0.2,0],[0.5,0,0],[0.995,0.63,0],[0.72,0.99,0],[0.5,1,0],[0.28,0.99,0]];shape=mxgraph.kubernetes.icon2;prIcon=pod" parent="1" vertex="1">
          <mxGeometry x="560" y="210" width="50" height="48" as="geometry" />
        </mxCell>
        <mxCell id="Jy6s6oh6iLwWn9NSKypM-10" value="MongoDB" style="aspect=fixed;sketch=0;html=1;dashed=0;whitespace=wrap;verticalLabelPosition=bottom;verticalAlign=top;fillColor=#e1d5e7;strokeColor=#9673a6;points=[[0.005,0.63,0],[0.1,0.2,0],[0.9,0.2,0],[0.5,0,0],[0.995,0.63,0],[0.72,0.99,0],[0.5,1,0],[0.28,0.99,0]];shape=mxgraph.kubernetes.icon2;prIcon=pod" parent="1" vertex="1">
          <mxGeometry x="717.5" y="239.22" width="50" height="48" as="geometry" />
        </mxCell>
        <mxCell id="Jy6s6oh6iLwWn9NSKypM-11" value="Frontend Admin" style="aspect=fixed;sketch=0;html=1;dashed=0;whitespace=wrap;verticalLabelPosition=bottom;verticalAlign=top;fillColor=#2875E2;strokeColor=#ffffff;points=[[0.005,0.63,0],[0.1,0.2,0],[0.9,0.2,0],[0.5,0,0],[0.995,0.63,0],[0.72,0.99,0],[0.5,1,0],[0.28,0.99,0]];shape=mxgraph.kubernetes.icon2;prIcon=pod" parent="1" vertex="1">
          <mxGeometry x="560" y="300" width="50" height="48" as="geometry" />
        </mxCell>
        <mxCell id="Jy6s6oh6iLwWn9NSKypM-12" value="Streamer" style="aspect=fixed;sketch=0;html=1;dashed=0;whitespace=wrap;verticalLabelPosition=bottom;verticalAlign=top;fillColor=#f8cecc;strokeColor=#b85450;points=[[0.005,0.63,0],[0.1,0.2,0],[0.9,0.2,0],[0.5,0,0],[0.995,0.63,0],[0.72,0.99,0],[0.5,1,0],[0.28,0.99,0]];shape=mxgraph.kubernetes.icon2;prIcon=pod" parent="1" vertex="1">
          <mxGeometry x="560" y="480" width="50" height="48" as="geometry" />
        </mxCell>
        <mxCell id="Jy6s6oh6iLwWn9NSKypM-14" value="FRONTEND" style="sketch=0;aspect=fixed;pointerEvents=1;shadow=0;dashed=0;html=1;strokeColor=none;labelPosition=center;verticalLabelPosition=bottom;verticalAlign=top;align=center;fillColor=#00188D;shape=mxgraph.azure.laptop" parent="1" vertex="1">
          <mxGeometry x="70" y="185.22" width="170" height="102" as="geometry" />
        </mxCell>
        <mxCell id="Jy6s6oh6iLwWn9NSKypM-15" value="Frontend Admin SVC" style="aspect=fixed;sketch=0;html=1;dashed=0;whitespace=wrap;verticalLabelPosition=bottom;verticalAlign=top;fillColor=#2875E2;strokeColor=#ffffff;points=[[0.005,0.63,0],[0.1,0.2,0],[0.9,0.2,0],[0.5,0,0],[0.995,0.63,0],[0.72,0.99,0],[0.5,1,0],[0.28,0.99,0]];shape=mxgraph.kubernetes.icon2;prIcon=svc" parent="1" vertex="1">
          <mxGeometry x="430" y="300" width="50" height="48" as="geometry" />
        </mxCell>
        <mxCell id="Jy6s6oh6iLwWn9NSKypM-16" value="Backend SVC" style="aspect=fixed;sketch=0;html=1;dashed=0;whitespace=wrap;verticalLabelPosition=bottom;verticalAlign=top;fillColor=#2875E2;strokeColor=#ffffff;points=[[0.005,0.63,0],[0.1,0.2,0],[0.9,0.2,0],[0.5,0,0],[0.995,0.63,0],[0.72,0.99,0],[0.5,1,0],[0.28,0.99,0]];shape=mxgraph.kubernetes.icon2;prIcon=svc" parent="1" vertex="1">
          <mxGeometry x="430" y="390" width="50" height="48" as="geometry" />
        </mxCell>
        <mxCell id="Jy6s6oh6iLwWn9NSKypM-17" value="Streamer SVC" style="aspect=fixed;sketch=0;html=1;dashed=0;whitespace=wrap;verticalLabelPosition=bottom;verticalAlign=top;fillColor=#2875E2;strokeColor=#ffffff;points=[[0.005,0.63,0],[0.1,0.2,0],[0.9,0.2,0],[0.5,0,0],[0.995,0.63,0],[0.72,0.99,0],[0.5,1,0],[0.28,0.99,0]];shape=mxgraph.kubernetes.icon2;prIcon=svc" parent="1" vertex="1">
          <mxGeometry x="430" y="480" width="50" height="48" as="geometry" />
        </mxCell>
        <mxCell id="Jy6s6oh6iLwWn9NSKypM-18" value="" style="aspect=fixed;sketch=0;html=1;dashed=0;whitespace=wrap;verticalLabelPosition=bottom;verticalAlign=top;fillColor=#2875E2;strokeColor=#ffffff;points=[[0.005,0.63,0],[0.1,0.2,0],[0.9,0.2,0],[0.5,0,0],[0.995,0.63,0],[0.72,0.99,0],[0.5,1,0],[0.28,0.99,0]];shape=mxgraph.kubernetes.icon2;prIcon=pod" parent="1" vertex="1">
          <mxGeometry x="580" y="200" width="50" height="48" as="geometry" />
        </mxCell>
        <mxCell id="Jy6s6oh6iLwWn9NSKypM-19" value="" style="aspect=fixed;sketch=0;html=1;dashed=0;whitespace=wrap;verticalLabelPosition=bottom;verticalAlign=top;fillColor=#2875E2;strokeColor=#ffffff;points=[[0.005,0.63,0],[0.1,0.2,0],[0.9,0.2,0],[0.5,0,0],[0.995,0.63,0],[0.72,0.99,0],[0.5,1,0],[0.28,0.99,0]];shape=mxgraph.kubernetes.icon2;prIcon=pod" parent="1" vertex="1">
          <mxGeometry x="600" y="220" width="50" height="48" as="geometry" />
        </mxCell>
        <mxCell id="Jy6s6oh6iLwWn9NSKypM-20" value="" style="aspect=fixed;sketch=0;html=1;dashed=0;whitespace=wrap;verticalLabelPosition=bottom;verticalAlign=top;fillColor=#2875E2;strokeColor=#ffffff;points=[[0.005,0.63,0],[0.1,0.2,0],[0.9,0.2,0],[0.5,0,0],[0.995,0.63,0],[0.72,0.99,0],[0.5,1,0],[0.28,0.99,0]];shape=mxgraph.kubernetes.icon2;prIcon=pod" parent="1" vertex="1">
          <mxGeometry x="580" y="290" width="50" height="48" as="geometry" />
        </mxCell>
        <mxCell id="Jy6s6oh6iLwWn9NSKypM-21" value="" style="aspect=fixed;sketch=0;html=1;dashed=0;whitespace=wrap;verticalLabelPosition=bottom;verticalAlign=top;fillColor=#2875E2;strokeColor=#ffffff;points=[[0.005,0.63,0],[0.1,0.2,0],[0.9,0.2,0],[0.5,0,0],[0.995,0.63,0],[0.72,0.99,0],[0.5,1,0],[0.28,0.99,0]];shape=mxgraph.kubernetes.icon2;prIcon=pod" parent="1" vertex="1">
          <mxGeometry x="600" y="310" width="50" height="48" as="geometry" />
        </mxCell>
        <mxCell id="Jy6s6oh6iLwWn9NSKypM-22" value="" style="aspect=fixed;sketch=0;html=1;dashed=0;whitespace=wrap;verticalLabelPosition=bottom;verticalAlign=top;fillColor=#f8cecc;strokeColor=#b85450;points=[[0.005,0.63,0],[0.1,0.2,0],[0.9,0.2,0],[0.5,0,0],[0.995,0.63,0],[0.72,0.99,0],[0.5,1,0],[0.28,0.99,0]];shape=mxgraph.kubernetes.icon2;prIcon=pod" parent="1" vertex="1">
          <mxGeometry x="580" y="380" width="50" height="48" as="geometry" />
        </mxCell>
        <mxCell id="Jy6s6oh6iLwWn9NSKypM-23" value="" style="aspect=fixed;sketch=0;html=1;dashed=0;whitespace=wrap;verticalLabelPosition=bottom;verticalAlign=top;fillColor=#f8cecc;strokeColor=#b85450;points=[[0.005,0.63,0],[0.1,0.2,0],[0.9,0.2,0],[0.5,0,0],[0.995,0.63,0],[0.72,0.99,0],[0.5,1,0],[0.28,0.99,0]];shape=mxgraph.kubernetes.icon2;prIcon=pod" parent="1" vertex="1">
          <mxGeometry x="600" y="400" width="50" height="48" as="geometry" />
        </mxCell>
        <mxCell id="Jy6s6oh6iLwWn9NSKypM-24" value="" style="aspect=fixed;sketch=0;html=1;dashed=0;whitespace=wrap;verticalLabelPosition=bottom;verticalAlign=top;fillColor=#f8cecc;strokeColor=#b85450;points=[[0.005,0.63,0],[0.1,0.2,0],[0.9,0.2,0],[0.5,0,0],[0.995,0.63,0],[0.72,0.99,0],[0.5,1,0],[0.28,0.99,0]];shape=mxgraph.kubernetes.icon2;prIcon=pod" parent="1" vertex="1">
          <mxGeometry x="580" y="468" width="50" height="48" as="geometry" />
        </mxCell>
        <mxCell id="Jy6s6oh6iLwWn9NSKypM-25" value="" style="aspect=fixed;sketch=0;html=1;dashed=0;whitespace=wrap;verticalLabelPosition=bottom;verticalAlign=top;fillColor=#f8cecc;strokeColor=#b85450;points=[[0.005,0.63,0],[0.1,0.2,0],[0.9,0.2,0],[0.5,0,0],[0.995,0.63,0],[0.72,0.99,0],[0.5,1,0],[0.28,0.99,0]];shape=mxgraph.kubernetes.icon2;prIcon=pod" parent="1" vertex="1">
          <mxGeometry x="600" y="488" width="50" height="48" as="geometry" />
        </mxCell>
        <mxCell id="Jy6s6oh6iLwWn9NSKypM-29" value="" style="endArrow=classic;startArrow=classic;html=1;rounded=0;entryX=0.23;entryY=0.808;entryDx=0;entryDy=0;entryPerimeter=0;exitX=0.9;exitY=0.2;exitDx=0;exitDy=0;exitPerimeter=0;" parent="1" source="Jy6s6oh6iLwWn9NSKypM-23" target="Jy6s6oh6iLwWn9NSKypM-10" edge="1">
          <mxGeometry width="50" height="50" relative="1" as="geometry">
            <mxPoint x="650" y="480" as="sourcePoint" />
            <mxPoint x="700" y="430" as="targetPoint" />
          </mxGeometry>
        </mxCell>
        <mxCell id="Jy6s6oh6iLwWn9NSKypM-30" value="" style="endArrow=classic;startArrow=classic;html=1;rounded=0;exitX=0.9;exitY=0.2;exitDx=0;exitDy=0;exitPerimeter=0;entryX=0;entryY=1;entryDx=0;entryDy=0;" parent="1" source="Jy6s6oh6iLwWn9NSKypM-25" target="Jy6s6oh6iLwWn9NSKypM-1" edge="1">
          <mxGeometry width="50" height="50" relative="1" as="geometry">
            <mxPoint x="690" y="552" as="sourcePoint" />
            <mxPoint x="774" y="420" as="targetPoint" />
          </mxGeometry>
        </mxCell>
        <mxCell id="Jy6s6oh6iLwWn9NSKypM-31" value="" style="endArrow=classic;startArrow=classic;html=1;rounded=0;entryX=0;entryY=0.75;entryDx=0;entryDy=0;exitX=0.99;exitY=0.5;exitDx=0;exitDy=0;exitPerimeter=0;" parent="1" source="Jy6s6oh6iLwWn9NSKypM-23" target="Jy6s6oh6iLwWn9NSKypM-1" edge="1">
          <mxGeometry width="50" height="50" relative="1" as="geometry">
            <mxPoint x="940" y="602" as="sourcePoint" />
            <mxPoint x="1024" y="470" as="targetPoint" />
          </mxGeometry>
        </mxCell>
        <mxCell id="Jy6s6oh6iLwWn9NSKypM-32" value="" style="endArrow=classic;html=1;rounded=0;exitX=0.995;exitY=0.63;exitDx=0;exitDy=0;exitPerimeter=0;entryX=0.005;entryY=0.63;entryDx=0;entryDy=0;entryPerimeter=0;" parent="1" source="Jy6s6oh6iLwWn9NSKypM-17" target="Jy6s6oh6iLwWn9NSKypM-12" edge="1">
          <mxGeometry width="50" height="50" relative="1" as="geometry">
            <mxPoint x="650" y="480" as="sourcePoint" />
            <mxPoint x="700" y="430" as="targetPoint" />
          </mxGeometry>
        </mxCell>
        <mxCell id="Jy6s6oh6iLwWn9NSKypM-33" value="" style="endArrow=classic;html=1;rounded=0;exitX=0.83;exitY=0.646;exitDx=0;exitDy=0;exitPerimeter=0;entryX=0.005;entryY=0.63;entryDx=0;entryDy=0;entryPerimeter=0;" parent="1" source="Jy6s6oh6iLwWn9NSKypM-16" target="Jy6s6oh6iLwWn9NSKypM-6" edge="1">
          <mxGeometry width="50" height="50" relative="1" as="geometry">
            <mxPoint x="480" y="423.5" as="sourcePoint" />
            <mxPoint x="560" y="423.5" as="targetPoint" />
          </mxGeometry>
        </mxCell>
        <mxCell id="Jy6s6oh6iLwWn9NSKypM-34" value="" style="endArrow=classic;html=1;rounded=0;exitX=0.995;exitY=0.63;exitDx=0;exitDy=0;exitPerimeter=0;entryX=0.005;entryY=0.63;entryDx=0;entryDy=0;entryPerimeter=0;" parent="1" source="Jy6s6oh6iLwWn9NSKypM-15" target="Jy6s6oh6iLwWn9NSKypM-11" edge="1">
          <mxGeometry width="50" height="50" relative="1" as="geometry">
            <mxPoint x="640" y="620" as="sourcePoint" />
            <mxPoint x="720" y="620" as="targetPoint" />
          </mxGeometry>
        </mxCell>
        <mxCell id="Jy6s6oh6iLwWn9NSKypM-35" value="" style="endArrow=classic;html=1;rounded=0;exitX=0.995;exitY=0.63;exitDx=0;exitDy=0;exitPerimeter=0;entryX=0.005;entryY=0.63;entryDx=0;entryDy=0;entryPerimeter=0;" parent="1" source="Jy6s6oh6iLwWn9NSKypM-8" target="Jy6s6oh6iLwWn9NSKypM-9" edge="1">
          <mxGeometry width="50" height="50" relative="1" as="geometry">
            <mxPoint x="690" y="650" as="sourcePoint" />
            <mxPoint x="770" y="650" as="targetPoint" />
          </mxGeometry>
        </mxCell>
        <mxCell id="Jy6s6oh6iLwWn9NSKypM-36" value="FRONTEND-ADMIN" style="sketch=0;aspect=fixed;pointerEvents=1;shadow=0;dashed=0;html=1;strokeColor=none;labelPosition=center;verticalLabelPosition=bottom;verticalAlign=top;align=center;fillColor=#00188D;shape=mxgraph.azure.laptop" parent="1" vertex="1">
          <mxGeometry x="70" y="425" width="170" height="102" as="geometry" />
        </mxCell>
        <mxCell id="Jy6s6oh6iLwWn9NSKypM-37" value="" style="shape=flexArrow;endArrow=classic;html=1;rounded=0;entryX=1.015;entryY=0.284;entryDx=0;entryDy=0;entryPerimeter=0;exitX=0.005;exitY=0.63;exitDx=0;exitDy=0;exitPerimeter=0;" parent="1" source="Jy6s6oh6iLwWn9NSKypM-8" target="Jy6s6oh6iLwWn9NSKypM-14" edge="1">
          <mxGeometry width="50" height="50" relative="1" as="geometry">
            <mxPoint x="650" y="480" as="sourcePoint" />
            <mxPoint x="700" y="430" as="targetPoint" />
          </mxGeometry>
        </mxCell>
        <mxCell id="Jy6s6oh6iLwWn9NSKypM-38" value="" style="shape=flexArrow;endArrow=classic;html=1;rounded=0;entryX=0.991;entryY=0.059;entryDx=0;entryDy=0;entryPerimeter=0;exitX=0.005;exitY=0.63;exitDx=0;exitDy=0;exitPerimeter=0;" parent="1" source="Jy6s6oh6iLwWn9NSKypM-15" target="Jy6s6oh6iLwWn9NSKypM-36" edge="1">
          <mxGeometry width="50" height="50" relative="1" as="geometry">
            <mxPoint x="650" y="480" as="sourcePoint" />
            <mxPoint x="700" y="430" as="targetPoint" />
          </mxGeometry>
        </mxCell>
        <mxCell id="Jy6s6oh6iLwWn9NSKypM-39" value="" style="endArrow=classic;html=1;rounded=0;exitX=0.991;exitY=1.049;exitDx=0;exitDy=0;exitPerimeter=0;entryX=0.005;entryY=0.63;entryDx=0;entryDy=0;entryPerimeter=0;strokeWidth=2;strokeColor=light-dark(#ff0000, #ededed);" parent="1" source="Jy6s6oh6iLwWn9NSKypM-14" target="Jy6s6oh6iLwWn9NSKypM-16" edge="1">
          <mxGeometry width="50" height="50" relative="1" as="geometry">
            <mxPoint x="650" y="480" as="sourcePoint" />
            <mxPoint x="700" y="430" as="targetPoint" />
          </mxGeometry>
        </mxCell>
        <mxCell id="Jy6s6oh6iLwWn9NSKypM-41" value="" style="endArrow=classic;html=1;rounded=0;exitX=0.1;exitY=0.2;exitDx=0;exitDy=0;exitPerimeter=0;entryX=0.809;entryY=1.013;entryDx=0;entryDy=0;entryPerimeter=0;strokeWidth=2;strokeColor=#6c8ebf;fillColor=#dae8fc;" parent="1" source="Jy6s6oh6iLwWn9NSKypM-17" target="Jy6s6oh6iLwWn9NSKypM-14" edge="1">
          <mxGeometry width="50" height="50" relative="1" as="geometry">
            <mxPoint x="320.99999999999994" y="610" as="sourcePoint" />
            <mxPoint x="550.1800000000001" y="832" as="targetPoint" />
          </mxGeometry>
        </mxCell>
        <mxCell id="Jy6s6oh6iLwWn9NSKypM-43" value="" style="endArrow=classic;html=1;rounded=0;exitX=1.018;exitY=0.554;exitDx=0;exitDy=0;exitPerimeter=0;entryX=-0.01;entryY=0.969;entryDx=0;entryDy=0;entryPerimeter=0;strokeWidth=2;strokeColor=light-dark(#ff0000, #5c79a3);fillColor=#dae8fc;" parent="1" source="Jy6s6oh6iLwWn9NSKypM-36" target="Jy6s6oh6iLwWn9NSKypM-16" edge="1">
          <mxGeometry width="50" height="50" relative="1" as="geometry">
            <mxPoint x="730" y="630" as="sourcePoint" />
            <mxPoint x="912" y="723" as="targetPoint" />
          </mxGeometry>
        </mxCell>
        <mxCell id="Jy6s6oh6iLwWn9NSKypM-45" value="" style="endArrow=classic;html=1;rounded=0;exitX=0.005;exitY=0.63;exitDx=0;exitDy=0;exitPerimeter=0;entryX=0.991;entryY=0.838;entryDx=0;entryDy=0;entryPerimeter=0;strokeWidth=2;strokeColor=#6c8ebf;dashed=1;fillColor=#dae8fc;" parent="1" source="Jy6s6oh6iLwWn9NSKypM-17" target="Jy6s6oh6iLwWn9NSKypM-36" edge="1">
          <mxGeometry width="50" height="50" relative="1" as="geometry">
            <mxPoint x="299.99999999999994" y="690" as="sourcePoint" />
            <mxPoint x="491.46" y="702.9580000000001" as="targetPoint" />
          </mxGeometry>
        </mxCell>
      </root>
    </mxGraphModel>
  </diagram>
</mxfile>
